<mxfile host="app.diagrams.net" modified="2022-07-15T07:45:54.221Z" agent="5.0 (X11; Linux x86_64) AppleWebKit/537.36 (KHTML, like Gecko) Chrome/80.0.3987.132 Safari/537.36" etag="ahx85Td0xuVhgt05X1-u" version="20.1.1" type="github">
  <diagram id="lPLnxijLffPF35K8PNV2" name="第 1 页">
    <mxGraphModel dx="1662" dy="1930" grid="1" gridSize="10" guides="1" tooltips="1" connect="1" arrows="1" fold="1" page="1" pageScale="1" pageWidth="827" pageHeight="1169" math="0" shadow="0">
      <root>
        <mxCell id="0" />
        <mxCell id="1" parent="0" />
        <mxCell id="whcrr9R5FC-ByMepHqKr-4" value="" style="edgeStyle=orthogonalEdgeStyle;rounded=0;orthogonalLoop=1;jettySize=auto;html=1;" edge="1" parent="1" source="whcrr9R5FC-ByMepHqKr-1" target="whcrr9R5FC-ByMepHqKr-3">
          <mxGeometry relative="1" as="geometry" />
        </mxCell>
        <mxCell id="whcrr9R5FC-ByMepHqKr-5" value="&lt;span style=&quot;font-size: 12px; background-color: rgb(248, 249, 250);&quot;&gt;创建、删除、修改、查课程&lt;/span&gt;" style="edgeLabel;html=1;align=center;verticalAlign=middle;resizable=0;points=[];" vertex="1" connectable="0" parent="whcrr9R5FC-ByMepHqKr-4">
          <mxGeometry x="-0.24" y="2" relative="1" as="geometry">
            <mxPoint as="offset" />
          </mxGeometry>
        </mxCell>
        <mxCell id="whcrr9R5FC-ByMepHqKr-1" value="对课程的业务" style="rounded=1;whiteSpace=wrap;html=1;" vertex="1" parent="1">
          <mxGeometry x="350" y="50" width="120" height="60" as="geometry" />
        </mxCell>
        <mxCell id="whcrr9R5FC-ByMepHqKr-3" value="课程" style="rounded=0;whiteSpace=wrap;html=1;" vertex="1" parent="1">
          <mxGeometry x="350" y="200" width="120" height="60" as="geometry" />
        </mxCell>
        <mxCell id="whcrr9R5FC-ByMepHqKr-17" value="" style="edgeStyle=orthogonalEdgeStyle;rounded=0;orthogonalLoop=1;jettySize=auto;html=1;" edge="1" parent="1" source="whcrr9R5FC-ByMepHqKr-6" target="whcrr9R5FC-ByMepHqKr-16">
          <mxGeometry relative="1" as="geometry" />
        </mxCell>
        <mxCell id="whcrr9R5FC-ByMepHqKr-6" value="课程" style="rounded=0;whiteSpace=wrap;html=1;" vertex="1" parent="1">
          <mxGeometry x="540" y="350" width="120" height="60" as="geometry" />
        </mxCell>
        <mxCell id="whcrr9R5FC-ByMepHqKr-7" value="" style="edgeStyle=orthogonalEdgeStyle;rounded=0;orthogonalLoop=1;jettySize=auto;html=1;" edge="1" parent="1" source="whcrr9R5FC-ByMepHqKr-9" target="whcrr9R5FC-ByMepHqKr-10">
          <mxGeometry relative="1" as="geometry" />
        </mxCell>
        <mxCell id="whcrr9R5FC-ByMepHqKr-8" value="&lt;span style=&quot;font-size: 12px; background-color: rgb(248, 249, 250);&quot;&gt;创建、删除、修改、查班级总结&lt;/span&gt;" style="edgeLabel;html=1;align=center;verticalAlign=middle;resizable=0;points=[];" vertex="1" connectable="0" parent="whcrr9R5FC-ByMepHqKr-7">
          <mxGeometry x="-0.24" y="2" relative="1" as="geometry">
            <mxPoint as="offset" />
          </mxGeometry>
        </mxCell>
        <mxCell id="whcrr9R5FC-ByMepHqKr-9" value="班级总结" style="rounded=1;whiteSpace=wrap;html=1;" vertex="1" parent="1">
          <mxGeometry x="540" y="50" width="120" height="60" as="geometry" />
        </mxCell>
        <mxCell id="whcrr9R5FC-ByMepHqKr-14" value="" style="edgeStyle=orthogonalEdgeStyle;rounded=0;orthogonalLoop=1;jettySize=auto;html=1;" edge="1" parent="1" source="whcrr9R5FC-ByMepHqKr-10" target="whcrr9R5FC-ByMepHqKr-6">
          <mxGeometry relative="1" as="geometry" />
        </mxCell>
        <mxCell id="whcrr9R5FC-ByMepHqKr-15" value="通过查询课程表查到该班级所有的课程，" style="edgeLabel;html=1;align=center;verticalAlign=middle;resizable=0;points=[];" vertex="1" connectable="0" parent="whcrr9R5FC-ByMepHqKr-14">
          <mxGeometry x="0.16" y="1" relative="1" as="geometry">
            <mxPoint as="offset" />
          </mxGeometry>
        </mxCell>
        <mxCell id="whcrr9R5FC-ByMepHqKr-10" value="课程表" style="rounded=0;whiteSpace=wrap;html=1;" vertex="1" parent="1">
          <mxGeometry x="540" y="200" width="120" height="60" as="geometry" />
        </mxCell>
        <mxCell id="whcrr9R5FC-ByMepHqKr-12" value="课程和课程表是两个概念：课程是具体的每一节课，课程表是每个班级的排班表" style="text;html=1;align=center;verticalAlign=middle;resizable=0;points=[];autosize=1;strokeColor=none;fillColor=none;" vertex="1" parent="1">
          <mxGeometry x="190" y="-70" width="440" height="30" as="geometry" />
        </mxCell>
        <mxCell id="whcrr9R5FC-ByMepHqKr-18" style="edgeStyle=orthogonalEdgeStyle;rounded=0;orthogonalLoop=1;jettySize=auto;html=1;entryX=0.5;entryY=1;entryDx=0;entryDy=0;" edge="1" parent="1" source="whcrr9R5FC-ByMepHqKr-16" target="whcrr9R5FC-ByMepHqKr-3">
          <mxGeometry relative="1" as="geometry" />
        </mxCell>
        <mxCell id="whcrr9R5FC-ByMepHqKr-19" value="通过班级总结，记录实际上课人数" style="edgeLabel;html=1;align=center;verticalAlign=middle;resizable=0;points=[];" vertex="1" connectable="0" parent="whcrr9R5FC-ByMepHqKr-18">
          <mxGeometry x="0.441" y="1" relative="1" as="geometry">
            <mxPoint as="offset" />
          </mxGeometry>
        </mxCell>
        <mxCell id="whcrr9R5FC-ByMepHqKr-16" value="班级总结表&lt;br&gt;（存储班级信息，相应的课程到勤人数等）" style="rounded=0;whiteSpace=wrap;html=1;" vertex="1" parent="1">
          <mxGeometry x="540" y="490" width="120" height="60" as="geometry" />
        </mxCell>
        <mxCell id="whcrr9R5FC-ByMepHqKr-20" value="" style="edgeStyle=orthogonalEdgeStyle;rounded=0;orthogonalLoop=1;jettySize=auto;html=1;" edge="1" parent="1" source="whcrr9R5FC-ByMepHqKr-22" target="whcrr9R5FC-ByMepHqKr-23">
          <mxGeometry relative="1" as="geometry" />
        </mxCell>
        <mxCell id="whcrr9R5FC-ByMepHqKr-21" value="&lt;span style=&quot;font-size: 12px; background-color: rgb(248, 249, 250);&quot;&gt;创建、删除、修改、查&lt;/span&gt;" style="edgeLabel;html=1;align=center;verticalAlign=middle;resizable=0;points=[];" vertex="1" connectable="0" parent="whcrr9R5FC-ByMepHqKr-20">
          <mxGeometry x="-0.24" y="2" relative="1" as="geometry">
            <mxPoint as="offset" />
          </mxGeometry>
        </mxCell>
        <mxCell id="whcrr9R5FC-ByMepHqKr-22" value="长者报名" style="rounded=1;whiteSpace=wrap;html=1;" vertex="1" parent="1">
          <mxGeometry x="40" y="50" width="120" height="60" as="geometry" />
        </mxCell>
        <mxCell id="whcrr9R5FC-ByMepHqKr-24" style="edgeStyle=orthogonalEdgeStyle;rounded=0;orthogonalLoop=1;jettySize=auto;html=1;" edge="1" parent="1" source="whcrr9R5FC-ByMepHqKr-23" target="whcrr9R5FC-ByMepHqKr-3">
          <mxGeometry relative="1" as="geometry" />
        </mxCell>
        <mxCell id="whcrr9R5FC-ByMepHqKr-26" value="审批通过，报名人数+1" style="edgeLabel;html=1;align=center;verticalAlign=middle;resizable=0;points=[];" vertex="1" connectable="0" parent="whcrr9R5FC-ByMepHqKr-24">
          <mxGeometry x="-0.3684" y="-3" relative="1" as="geometry">
            <mxPoint x="20" y="-3" as="offset" />
          </mxGeometry>
        </mxCell>
        <mxCell id="whcrr9R5FC-ByMepHqKr-23" value="保报名表" style="rounded=0;whiteSpace=wrap;html=1;" vertex="1" parent="1">
          <mxGeometry x="40" y="200" width="120" height="60" as="geometry" />
        </mxCell>
      </root>
    </mxGraphModel>
  </diagram>
</mxfile>
